# xmcd CD database file
#
# Track frame offsets:
#	150
#	10261
#	22047
#	33382
#	42291
#	53379
#	62373
#	82338
#	92170
#	102893
#	116628
#	127363
#	142366
#
# Disc length: 2088 seconds
#
# Revision: 0
# Processed by: cddbd v1.5.2PL0 Copyright (c) Steve Scherf et al.
# Submitted via: CDex 1.51
#
DISCID=b608260d
DTITLE=Ann Pascoe - Country Sunshine
DYEAR=2008
DGENRE=Country
TTITLE0=Country Sunshine
TTITLE1=Appartment Number Nine
TTITLE2=A Cowboy Loving Night
TTITLE3=Anytime
TTITLE4=Here Comes My Baby
TTITLE5=Half As Much
TTITLE6=Flies On The Butter
TTITLE7=Have You Ever Been Lonely
TTITLE8=Walking The Floor Over You
TTITLE9=Slow Poke
TTITLE10=Bed Of Roses
TTITLE11=Couldn't Leave You If I Tried
TTITLE12=Every Little Thing
EXTD=YEAR: 2008
EXTT0=
EXTT1=
EXTT2=
EXTT3=
EXTT4=
EXTT5=
EXTT6=
EXTT7=
EXTT8=
EXTT9=
EXTT10=
EXTT11=
EXTT12=
PLAYORDER=
